<?xml version="1.0" standalone="no"?>
<!DOCTYPE svg PUBLIC "-//W3C//DTD SVG 20010904//EN"
 "http://www.w3.org/TR/2001/REC-SVG-20010904/DTD/svg10.dtd">
<svg version="1.0" xmlns="http://www.w3.org/2000/svg"
 width="1479.000000pt" height="1479.000000pt" viewBox="0 0 1479.000000 1479.000000"
 preserveAspectRatio="xMidYMid meet">
<metadata>
Created by potrace 1.16, written by Peter Selinger 2001-2019
</metadata>
<g transform="translate(0.000000,1479.000000) scale(0.100000,-0.100000)"
fill="#000000" stroke="none">
<path d="M4065 14634 c-100 -7 -107 -10 -100 -45 9 -40 -9 -59 -56 -59 -21 0
-40 -4 -43 -9 -3 -5 -26 -12 -50 -15 -51 -8 -61 -17 -70 -67 -7 -40 -23 -49
-88 -49 -37 0 -37 0 -31 -36 7 -44 -13 -64 -63 -64 -53 0 -83 -18 -86 -54 -3
-28 -6 -31 -35 -29 -24 2 -33 -2 -38 -17 -9 -28 -41 -43 -76 -35 -25 6 -30 3
-39 -20 -5 -14 -10 -37 -10 -50 0 -30 -16 -35 -109 -35 -92 0 -110 -11 -118
-67 -4 -28 -11 -43 -22 -45 -26 -5 97 -48 139 -48 46 0 56 12 67 74 11 66 29
76 90 53 77 -30 85 -28 113 27 17 33 33 52 50 56 14 4 47 13 75 19 27 7 53 17
56 23 4 6 27 12 51 12 38 1 43 -1 39 -19 -3 -11 -4 -50 -4 -87 0 -94 20 -124
104 -158 69 -29 141 -35 529 -42 155 -3 212 -16 157 -37 -16 -6 -33 -11 -38
-11 -6 0 -36 -24 -67 -54 -31 -30 -82 -65 -112 -78 -30 -14 -86 -46 -123 -71
-38 -26 -74 -47 -81 -47 -7 0 -21 -9 -31 -20 -20 -23 -65 -152 -65 -190 0 -58
54 -90 151 -90 31 0 55 -7 72 -20 36 -29 51 -26 43 8 -18 71 -18 77 4 97 19
17 37 20 134 20 104 0 115 -2 149 -25 20 -14 37 -28 37 -33 0 -4 11 -12 24
-17 19 -7 40 -3 87 15 81 32 122 64 164 130 30 47 41 56 80 66 58 15 73 39 48
78 -62 98 -75 126 -88 187 -8 38 -15 83 -15 101 0 41 -36 71 -127 108 -69 28
-71 28 -263 23 -43 -1 -74 7 -142 36 -58 24 -109 39 -155 43 -37 3 -95 16
-128 29 -41 15 -90 24 -155 27 -53 3 -110 11 -129 19 l-33 13 46 33 c25 18 46
37 46 43 0 5 30 40 68 78 37 38 75 79 85 90 13 16 29 21 67 21 65 0 95 27 106
95 8 54 33 85 68 85 37 0 53 -23 61 -85 9 -74 31 -89 112 -79 32 4 88 17 125
30 75 27 96 24 104 -15 14 -64 27 -90 46 -97 26 -8 131 3 200 22 29 7 72 14
94 14 l41 0 5 -50 c3 -30 13 -59 24 -71 17 -19 26 -21 104 -15 47 3 114 9 149
12 62 6 64 6 58 -15 -8 -31 9 -84 33 -99 11 -6 65 -18 120 -26 l101 -14 52
-55 c29 -30 63 -57 75 -61 12 -4 34 -27 48 -52 15 -26 43 -55 68 -69 23 -13
55 -38 71 -56 17 -17 51 -42 77 -55 47 -24 79 -60 93 -102 3 -13 50 -67 104
-120 53 -53 121 -127 150 -165 61 -77 86 -88 140 -61 31 16 63 19 216 21 122
2 195 8 225 17 64 21 93 26 202 35 90 7 100 10 148 46 89 65 257 107 347 86
34 -8 107 -9 253 -2 193 8 210 11 295 41 57 20 112 32 150 33 53 2 65 -2 99
-28 29 -22 50 -30 81 -30 51 0 95 27 95 59 0 29 -15 42 -60 51 -67 14 -80 29
-80 95 0 32 5 62 10 65 16 10 78 -14 151 -56 75 -45 90 -47 130 -19 15 12 49
30 74 41 49 22 75 61 75 114 0 37 20 40 89 11 44 -19 78 -26 126 -26 60 0 69
3 96 29 16 16 29 36 29 45 0 8 12 24 26 35 22 17 41 21 100 21 92 0 118 12
143 66 l21 43 63 -6 c118 -11 177 29 177 118 l0 49 108 1 c59 1 157 5 217 9
72 6 -1 7 -209 4 -209 -2 -323 -7 -330 -14 -6 -6 -16 -30 -21 -53 l-11 -42
-130 -6 c-72 -3 -138 -10 -147 -16 -10 -5 -28 -29 -41 -54 l-24 -44 -105 -5
c-58 -3 -107 -7 -110 -10 -2 -3 -8 -25 -13 -50 l-9 -45 -163 -6 c-89 -3 -165
-9 -169 -13 -4 -4 -6 -23 -4 -41 2 -30 -1 -36 -26 -46 -15 -6 -91 -13 -168
-15 -165 -6 -245 -13 -242 -22 3 -11 -26 -76 -37 -84 -6 -4 -183 -8 -393 -8
l-382 0 -12 43 c-6 23 -10 44 -8 47 6 10 -60 18 -171 19 -147 2 -155 4 -169
51 -18 61 -27 64 -187 66 -80 1 -146 3 -147 5 -1 2 -9 24 -17 49 -19 55 -27
58 -191 59 -137 1 -142 3 -153 58 -13 57 -14 57 -325 64 -157 4 -301 11 -320
16 -26 6 -37 16 -42 35 -6 22 -3 29 14 34 22 7 21 8 -3 15 -14 4 -61 7 -105 8
-44 1 -117 4 -163 8 l-82 6 -10 36 c-18 66 -15 65 -182 71 l-152 5 -11 37 c-5
20 -16 43 -23 50 -8 8 -66 16 -164 23 l-152 10 -15 47 c-13 43 -16 46 -55 52
-56 7 -368 14 -441 10z"/>
<path d="M4372 14324 c-31 -22 -28 -57 9 -88 63 -54 112 -45 117 20 5 71 -66
110 -126 68z"/>
<path d="M11110 14277 c0 -10 -4 -17 -10 -17 -5 0 -14 -9 -20 -20 -14 -26 2
-58 36 -70 51 -20 268 -39 320 -28 102 21 119 26 97 27 -17 1 -23 9 -28 41
-10 58 -26 70 -94 70 -32 0 -113 3 -179 7 -109 5 -122 4 -122 -10z"/>
<path d="M11581 14163 c21 -5 29 -33 29 -105 0 -31 5 -60 11 -64 17 -10 159
16 202 38 l38 19 -28 52 c-26 48 -31 53 -73 59 -49 7 -205 8 -179 1z"/>
<path d="M11906 14028 c-10 -15 -16 -55 -17 -116 l-3 -94 38 -31 c33 -28 40
-43 61 -127 13 -52 21 -106 18 -120 -12 -52 -74 -160 -104 -182 -17 -13 -42
-42 -56 -66 -15 -25 -41 -51 -62 -61 -20 -11 -46 -30 -58 -43 -26 -27 -53 -88
-53 -118 0 -12 -30 -50 -73 -93 -40 -40 -106 -113 -145 -162 -101 -125 -104
-128 -158 -147 -84 -29 -155 -79 -204 -143 -69 -89 -72 -90 -300 -88 -134 1
-218 6 -268 17 -86 19 -142 20 -211 5 -83 -18 -85 -23 -89 -237 -2 -164 -1
-191 15 -222 l18 -35 115 -1 c149 -1 161 -7 159 -79 -2 -53 0 -57 49 -109 58
-62 68 -87 53 -143 -19 -68 -37 -78 -166 -81 -91 -3 -121 0 -149 13 -40 19
-60 16 -76 -14 -13 -25 -32 -23 195 -25 566 -5 581 -6 601 -20 18 -13 19 -28
19 -198 0 -158 2 -188 17 -210 29 -44 73 -50 378 -47 217 2 282 0 294 -10 13
-11 16 -42 16 -191 0 -177 0 -179 25 -209 14 -16 34 -33 45 -36 10 -3 22 -16
26 -28 9 -24 6 -241 -2 -269 -7 -23 -23 -23 -39 -1 -12 16 -16 16 -62 -6 -26
-13 -60 -37 -74 -54 -26 -30 -29 -31 -145 -38 -188 -12 -1294 -13 -1306 -1 -5
5 -16 47 -24 93 -15 86 -34 129 -57 129 -7 0 -43 -18 -80 -40 -42 -26 -102
-50 -164 -66 -152 -41 -226 -84 -257 -151 -12 -26 -36 -50 -79 -78 -34 -22
-80 -56 -103 -75 -83 -69 -157 -125 -198 -149 -22 -13 -70 -42 -106 -65 -61
-39 -67 -41 -145 -41 -75 0 -83 2 -127 34 l-46 33 -69 -16 c-37 -9 -102 -23
-143 -31 -181 -36 -241 -54 -292 -86 l-52 -34 -240 -2 c-671 -7 -1524 -3
-1623 7 -59 6 -153 23 -209 37 -106 27 -172 27 -230 3 -27 -12 -36 -11 -75 8
-36 18 -70 23 -179 27 -74 4 -166 11 -204 17 -54 8 -70 7 -76 -2 -7 -11 -31
-11 -122 -2 -62 7 -136 17 -165 24 -41 9 -75 9 -162 -1 -101 -12 -115 -12
-156 4 -52 19 -55 29 -20 57 23 18 25 26 25 107 0 96 -12 144 -43 179 -43 47
-51 10 -12 -53 13 -22 24 -49 24 -60 1 -12 -6 -5 -18 21 -21 46 -56 77 -107
96 -30 11 -34 16 -29 39 4 19 -1 37 -19 63 -24 36 -25 41 -23 209 l2 172 -50
24 c-58 28 -72 43 -80 93 -6 34 -9 37 -27 27 -11 -6 -21 -9 -23 -7 -17 20 -25
59 -25 122 0 67 2 75 20 78 20 3 20 4 -6 53 -23 45 -78 106 -93 103 -3 -1 -17
3 -31 9 -14 6 -44 16 -68 23 -51 13 -64 37 -82 146 -6 38 -18 108 -27 156 -10
55 -13 107 -9 141 6 44 4 56 -11 69 -46 42 -130 29 -180 -27 -32 -36 -41 -39
-108 -36 -22 1 -52 -2 -67 -8 -24 -9 -28 -17 -34 -70 -8 -75 -27 -96 -71 -81
-18 7 -38 25 -48 45 -27 50 -12 92 45 125 l45 26 3 162 c3 212 -8 202 219 202
123 0 179 -4 221 -16 42 -13 77 -15 142 -10 l85 6 -58 -53 c-56 -50 -58 -53
-57 -102 l1 -50 20 62 c17 54 25 66 57 82 53 27 69 49 77 108 4 28 14 58 23
66 9 9 53 25 97 37 117 33 129 38 116 53 -23 28 -186 97 -246 103 -71 8 -82
15 -106 72 -25 59 -69 78 -144 62 -29 -6 -60 -17 -70 -24 -16 -12 -15 -15 14
-45 17 -17 31 -42 31 -55 0 -23 29 -54 76 -82 17 -10 16 -13 -16 -26 -46 -19
-57 -34 -70 -93 -6 -27 -15 -54 -20 -60 -6 -7 -63 -11 -165 -10 -207 2 -201
-3 -198 173 2 70 5 143 9 162 4 30 0 43 -25 74 -17 21 -36 56 -43 77 -14 49
-39 51 -61 4 -9 -18 -28 -42 -43 -51 -23 -16 -34 -16 -91 -7 -79 14 -103 33
-103 84 0 53 8 67 49 89 59 30 67 44 35 67 -38 28 -26 47 43 73 75 28 83 35
83 77 0 47 -12 65 -69 107 -28 20 -59 53 -70 75 -23 45 -52 58 -198 92 -51 11
-95 25 -98 30 -9 13 12 151 29 196 50 135 63 163 93 210 32 48 103 238 103
276 0 26 -64 23 -90 -5 -11 -12 -20 -25 -20 -30 0 -23 -67 -48 -129 -48 -58 0
-65 2 -97 34 -31 31 -34 39 -34 94 0 34 -5 64 -11 67 -5 4 -41 4 -78 0 -60 -6
-70 -10 -80 -31 -6 -14 -11 -36 -11 -49 0 -28 -8 -31 -114 -39 -79 -6 -102
-22 -112 -73 -7 -39 -36 -63 -76 -63 -24 0 -29 -6 -39 -42 -14 -56 -24 -66
-68 -74 -41 -8 -51 -18 -51 -55 0 -33 -21 -51 -68 -58 -34 -6 -38 -10 -47 -48
-13 -53 -24 -64 -66 -65 -40 -1 -49 -11 -49 -55 0 -38 -30 -63 -76 -63 -36 0
-38 -5 -49 -115 -4 -38 -12 -78 -17 -87 -10 -20 -48 -24 -65 -7 -17 17 -23 -1
-33 -106 -5 -53 -14 -103 -21 -111 -14 -17 -51 -18 -66 -3 -14 14 -19 -5 -28
-111 -3 -41 -12 -85 -21 -97 -16 -25 -43 -30 -62 -11 -20 20 -26 1 -30 -117
l-5 -115 58 0 c50 0 171 12 272 26 47 7 147 93 276 237 29 32 73 80 99 107 50
52 105 126 139 186 42 75 14 118 -84 129 -125 13 -142 16 -166 34 -14 9 -29
30 -34 46 -9 26 -6 31 36 69 26 23 51 53 56 68 7 18 27 36 59 52 26 13 55 32
63 42 29 36 70 44 169 33 51 -5 99 -14 106 -20 21 -17 36 -78 29 -116 -3 -19
-18 -57 -33 -83 -22 -40 -25 -53 -17 -76 21 -59 119 -73 198 -28 30 16 58 24
79 22 l33 -3 -4 -50 c-2 -27 -12 -71 -22 -98 -10 -26 -19 -72 -19 -101 0 -47
-5 -60 -38 -103 -49 -63 -74 -105 -102 -176 -12 -32 -34 -67 -49 -78 -39 -31
-50 -58 -51 -123 0 -58 -2 -61 -45 -101 -52 -49 -67 -81 -89 -187 -22 -107
-22 -416 0 -500 14 -58 14 -64 -6 -131 -12 -39 -34 -96 -50 -127 -51 -101 -55
-129 -31 -201 37 -110 26 -204 -32 -281 -14 -18 -34 -52 -46 -76 -27 -53 -49
-52 -74 1 -37 79 -83 22 -101 -124 -14 -106 -15 -109 -61 -129 -23 -10 -51
-31 -62 -47 -22 -31 -48 -106 -58 -168 -3 -22 -19 -65 -34 -95 -31 -61 -65
-200 -86 -346 -17 -125 -39 -154 -71 -92 -15 29 -15 60 -2 397 8 201 15 398
15 436 -1 39 2 316 5 617 6 531 7 549 27 577 23 32 51 129 51 176 0 38 -25 75
-51 75 -33 0 -49 -56 -49 -169 0 -115 -8 -128 -73 -110 -28 8 -40 19 -59 57
-20 42 -23 62 -24 187 -1 94 -7 160 -18 200 -9 32 -16 73 -16 89 0 41 -11 26
-21 -30 -15 -79 -50 -99 -74 -42 l-13 33 -6 -45 c-3 -25 -7 -151 -9 -281 l-4
-236 57 1 c70 1 90 -13 90 -64 0 -101 -58 -148 -126 -104 l-25 17 1 -873 c1
-626 -1 -875 -9 -883 -8 -8 -20 -7 -44 3 -27 13 -146 15 -759 18 l-728 2 0
-1975 0 -1976 1403 1 c771 1 1411 -2 1420 -6 10 -4 23 -2 30 5 6 6 19 11 28
11 34 0 43 -29 50 -171 4 -76 11 -144 14 -150 5 -7 14 -4 27 7 45 42 76 -24
78 -166 1 -98 10 -144 24 -122 10 16 51 15 65 -2 6 -7 16 -53 22 -102 6 -49
13 -91 16 -94 2 -2 19 -3 37 -2 48 5 60 -17 67 -120 7 -94 12 -109 31 -90 19
19 46 14 62 -11 8 -12 18 -55 22 -95 6 -70 16 -93 29 -72 9 15 41 12 58 -5 8
-8 18 -43 22 -77 12 -118 11 -117 53 -111 26 3 42 0 50 -9 6 -8 15 -59 19
-114 l8 -99 37 3 c49 4 64 -21 71 -120 6 -93 12 -105 38 -82 16 14 21 15 35 3
26 -21 44 -73 45 -126 1 -56 12 -93 23 -75 11 18 54 14 65 -6 5 -9 15 -54 21
-100 l12 -82 37 6 c53 9 65 -11 71 -117 6 -95 11 -109 34 -90 21 18 52 5 64
-27 6 -15 14 -66 17 -114 6 -83 16 -111 30 -88 3 5 17 10 29 10 33 0 56 -52
57 -132 1 -34 4 -76 8 -92 5 -26 7 -28 20 -13 20 25 49 20 64 -10 8 -16 18
-64 21 -108 10 -113 12 -119 36 -95 43 43 70 -5 81 -144 4 -54 10 -101 14
-104 3 -3 12 3 20 14 30 40 74 -20 84 -116 l6 -55 40 -3 c49 -4 65 -17 65 -51
0 -59 9 -71 55 -71 51 0 63 -12 67 -70 3 -42 5 -45 31 -43 50 3 77 -13 77 -46
0 -16 4 -41 9 -54 8 -19 15 -23 39 -19 52 7 72 -12 72 -68 l0 -50 39 0 c54 0
71 -8 71 -35 0 -12 3 -37 6 -54 6 -29 9 -31 39 -25 54 10 73 -8 77 -69 l3 -52
41 3 c50 4 62 -9 68 -71 6 -61 11 -67 46 -60 39 7 60 -11 60 -51 0 -17 6 -53
13 -81 13 -47 15 -50 44 -47 39 4 73 -35 73 -84 0 -52 7 -60 45 -56 46 5 65
-12 65 -57 0 -68 9 -82 44 -76 40 8 66 -11 67 -50 1 -34 19 -115 26 -115 2 0
12 4 22 9 9 5 22 7 28 3 14 -9 53 -106 53 -132 0 -29 25 -47 75 -54 25 -4 45
-12 45 -17 0 -5 10 -7 23 -4 12 4 36 1 51 -5 26 -10 28 -13 22 -50 l-6 -40 52
0 c65 0 73 -5 82 -53 4 -22 16 -43 29 -52 18 -11 89 -21 179 -24 12 -1 18 -14
23 -50 6 -47 8 -49 43 -55 20 -3 64 -6 97 -6 33 0 65 -4 71 -8 13 -8 36 -82
26 -82 -4 0 0 -4 8 -9 8 -6 58 -13 112 -17 105 -7 99 -4 113 -70 8 -39 16 -41
207 -50 185 -8 336 7 361 37 9 12 17 34 17 50 0 33 9 36 114 42 60 3 72 6 92
31 13 15 24 38 24 52 0 26 -1 26 87 28 69 2 94 16 74 40 -18 21 -5 36 29 36
19 0 33 7 40 20 9 16 21 20 63 20 67 0 84 10 66 38 -11 18 -10 24 5 41 11 12
28 21 40 21 11 0 55 5 97 12 l77 12 6 47 c7 55 15 59 119 59 88 0 103 9 111
65 4 25 13 45 19 46 7 0 49 2 95 3 47 2 88 8 95 15 6 6 16 31 22 54 l10 42 93
6 c51 3 97 10 102 15 6 6 16 30 23 55 12 42 15 44 52 47 50 4 65 17 65 54 0
51 16 68 64 68 48 0 56 9 56 65 0 27 5 35 28 43 16 5 40 8 54 5 24 -5 26 -2
33 46 8 56 29 77 70 67 39 -10 54 2 49 37 -8 47 15 71 62 70 43 -1 54 9 54 49
0 62 39 100 79 78 24 -12 27 -5 36 110 3 41 8 83 11 93 8 26 40 40 65 27 11
-7 23 -9 26 -7 2 3 8 48 13 100 4 52 13 104 19 116 13 23 50 28 68 10 14 -14
19 5 28 110 10 115 32 150 77 122 11 -7 22 -10 25 -8 2 3 9 51 14 108 12 127
39 167 83 124 18 -18 22 -9 31 80 11 95 23 133 46 140 13 4 27 1 38 -9 17 -16
19 -15 25 15 3 17 6 55 6 83 0 88 53 157 86 112 11 -15 12 -15 18 0 3 8 9 54
13 100 8 112 45 164 84 118 12 -15 14 -14 20 7 4 13 7 56 8 94 1 52 6 79 22
104 20 33 27 34 70 17 13 -6 17 3 22 46 4 29 7 73 7 98 0 25 7 56 16 68 16 24
58 30 70 10 11 -17 21 17 29 98 10 96 18 108 65 101 36 -5 38 -3 44 25 3 17 6
45 6 63 0 41 22 60 69 60 l36 0 10 81 c13 97 26 118 71 110 38 -8 44 3 44 75
0 40 4 51 24 64 13 9 37 15 52 13 27 -3 29 0 35 44 8 53 38 120 55 125 7 2 19
-3 27 -12 22 -21 28 -7 34 74 7 81 23 103 73 99 l35 -3 11 64 c13 73 33 95 76
86 24 -6 27 -3 32 27 3 18 7 79 10 136 3 56 11 115 18 130 16 32 47 41 64 17
21 -28 26 -1 31 153 6 166 15 217 43 232 15 8 23 6 38 -10 l19 -21 7 23 c3 13
6 75 6 138 1 133 11 195 35 218 15 16 18 15 39 -10 l22 -28 1362 0 1362 0 0
1975 0 1975 -833 0 c-811 0 -833 -1 -869 -20 -47 -25 -66 -18 -74 27 -8 41 10
158 27 179 16 19 46 18 58 -3 5 -10 13 -14 17 -10 4 4 10 112 13 240 5 200 9
237 24 260 21 32 41 34 61 6 14 -21 15 -21 20 12 3 19 7 404 9 857 l4 822 -74
0 c-48 0 -85 -6 -105 -16 -38 -20 -40 -18 -70 101 -31 120 -32 262 -3 320 23
46 64 67 95 47 41 -25 43 -18 38 113 -3 69 -8 128 -11 132 -4 3 -15 -1 -25
-10 -26 -23 -39 -21 -59 10 -13 20 -19 55 -23 142 l-5 116 -44 5 c-50 6 -57
15 -66 82 l-6 47 -39 -2 c-51 -2 -63 12 -70 76 l-5 52 -33 -3 c-44 -5 -72 21
-72 64 0 18 -5 44 -11 58 -10 21 -14 23 -30 13 -23 -14 -53 1 -57 29 -2 10 -9
35 -17 54 -7 19 -16 43 -19 54 -5 15 -9 16 -21 6 -8 -7 -21 -10 -29 -7 -15 6
-51 77 -61 120 -4 22 -11 27 -33 27 -36 0 -68 34 -77 81 -4 19 -10 41 -14 47
-8 13 -95 32 -150 32 -50 0 -61 10 -64 56 -1 21 -6 42 -12 46 -5 4 -43 8 -82
8 -64 0 -74 -3 -87 -22z m-291 -2261 c8 -12 21 -57 29 -99 8 -43 21 -87 28
-100 53 -93 97 -150 131 -168 20 -12 44 -35 52 -51 9 -16 33 -41 55 -55 46
-30 46 -32 55 -141 5 -55 3 -94 -5 -119 -13 -39 -20 -290 -8 -271 5 7 8 8 8 2
0 -6 45 -16 100 -23 110 -13 163 -31 179 -60 18 -34 -15 -241 -59 -372 -50
-147 -58 -180 -71 -282 -18 -141 -67 -213 -110 -160 -19 24 -25 59 -39 232 -6
69 -15 161 -21 204 -6 44 -9 152 -7 242 2 89 0 166 -4 169 -14 14 -37 -4 -58
-45 -17 -34 -24 -39 -39 -31 -43 24 -46 36 -46 223 l0 180 48 40 c32 27 47 48
47 64 0 36 -208 239 -275 269 -75 33 -80 43 -67 123 7 37 11 97 10 134 -1 48
3 74 16 92 20 32 31 33 51 3z m1073 -164 c32 -46 93 -202 113 -292 13 -57 31
-103 58 -145 46 -73 63 -128 51 -160 -17 -47 -56 -38 -140 33 -25 21 -63 49
-85 63 -22 14 -46 32 -53 40 -23 28 -30 112 -23 279 5 145 9 170 25 188 25 27
31 27 54 -6z m-9488 -1013 c11 -11 20 -26 20 -32 0 -25 -58 -135 -74 -141 -39
-15 -86 24 -86 71 0 28 9 43 44 78 48 49 67 53 96 24z m922 -147 l36 -72 -3
-141 c-3 -112 -7 -143 -20 -156 -14 -15 -14 -18 0 -40 21 -33 19 -41 -15 -59
l-30 -15 20 -38 c11 -20 20 -42 20 -48 0 -6 11 -21 25 -34 14 -13 25 -29 25
-36 0 -17 -101 -54 -147 -54 -63 0 -73 18 -73 136 0 57 4 123 9 146 6 24 15
68 22 98 7 30 13 116 14 190 1 107 5 142 19 168 28 53 54 41 98 -45z m7286
-289 c27 -18 28 -44 3 -75 l-19 -24 -564 -5 c-309 -3 -573 -2 -585 2 -34 11
-47 44 -33 79 7 16 18 33 26 37 7 4 268 6 581 4 479 -3 572 -5 591 -18z m2
-147 c22 -11 25 -20 28 -79 3 -62 5 -69 33 -88 16 -12 26 -26 23 -31 -19 -31
-67 -34 -609 -39 -545 -5 -550 -5 -596 -27 -60 -30 -69 -29 -102 12 -28 35
-28 35 -20 137 7 96 10 103 33 115 36 18 1174 18 1210 0z m-5672 -663 c13 -9
28 -28 34 -43 18 -42 31 -284 34 -616 1 -170 6 -429 10 -575 4 -176 2 -333 -6
-465 -9 -157 -9 -229 0 -335 7 -74 16 -189 20 -255 4 -66 13 -149 19 -185 50
-305 54 -342 41 -407 -14 -71 -8 -107 17 -118 30 -12 219 -27 373 -30 123 -3
151 0 185 15 49 22 242 35 306 21 118 -26 207 -34 351 -32 121 1 166 -2 193
-14 43 -17 153 -30 188 -21 31 7 40 55 21 103 -17 40 -47 49 -111 32 -29 -7
-160 -16 -328 -20 -154 -5 -311 -11 -349 -14 -44 -4 -71 -3 -75 4 -4 6 -101
12 -256 16 -138 4 -264 11 -282 16 -34 11 -33 9 -78 161 -13 47 -16 92 -14
255 3 143 -2 251 -16 388 -12 121 -19 252 -18 360 8 871 6 1100 -11 1175 -14
64 -15 91 -6 185 5 61 10 139 10 175 0 80 14 132 44 167 24 27 25 28 222 40
110 6 398 12 642 12 497 1 473 4 538 -74 49 -61 69 -64 132 -21 62 41 119 50
292 43 125 -5 179 -20 204 -59 8 -12 20 -61 26 -108 6 -46 20 -125 31 -175 23
-109 24 -171 4 -301 -20 -130 -20 -289 0 -344 20 -56 20 -343 1 -455 -11 -58
-15 -185 -16 -465 -1 -212 -1 -391 -1 -397 2 -23 59 -43 123 -43 35 0 137 7
228 15 91 8 245 15 343 15 176 0 178 0 218 -27 34 -22 42 -24 49 -12 29 45 24
231 -10 364 -22 88 -36 395 -44 965 -3 162 -8 430 -12 595 -5 211 -3 312 5
341 25 93 68 104 466 114 171 4 400 16 511 25 200 17 200 17 283 -4 84 -22
171 -60 205 -90 31 -27 36 -55 37 -230 1 -196 -4 -210 -79 -236 -57 -20 -227
-35 -502 -43 -153 -5 -211 -11 -230 -22 -14 -8 -54 -17 -90 -20 l-65 -5 -13
-40 c-22 -65 -25 -172 -8 -274 25 -150 44 -162 258 -160 168 1 186 -3 307 -66
74 -39 76 -42 117 -162 21 -64 25 -89 20 -139 -9 -89 -33 -160 -66 -197 l-28
-32 -269 0 c-357 0 -343 8 -345 -185 -2 -166 15 -326 38 -351 45 -50 63 -53
309 -50 144 1 256 7 300 16 39 7 122 16 185 20 120 7 129 5 207 -45 21 -13 25
-13 45 8 23 22 23 26 23 280 0 186 3 263 12 279 25 42 94 58 254 58 219 0 229
-9 229 -212 0 -70 7 -224 17 -342 16 -197 19 -214 38 -221 34 -14 387 -33 457
-26 81 9 104 29 93 78 -4 18 -10 121 -13 228 -7 184 -9 198 -34 253 -18 39
-37 63 -59 75 -17 9 -47 29 -68 45 -20 15 -66 47 -103 72 -37 24 -84 60 -105
78 -21 19 -69 50 -108 69 -181 90 -271 140 -286 159 -8 12 -45 35 -82 53 -84
40 -221 169 -238 224 -7 24 -15 209 -21 521 -10 440 -9 486 6 518 29 61 23 61
646 63 765 3 898 -8 935 -81 22 -42 21 -472 -1 -549 -10 -34 -16 -101 -17
-175 -2 -120 -2 -120 -37 -169 -49 -68 -70 -76 -193 -76 -126 0 -157 15 -200
100 l-29 55 7 156 c7 187 -1 234 -55 290 -42 45 -55 46 -135 19 -49 -17 -84
-20 -216 -20 -141 0 -159 -2 -167 -17 -18 -33 -35 -159 -30 -225 3 -55 10 -76
48 -137 24 -40 57 -84 74 -97 97 -74 158 -115 216 -144 36 -18 79 -45 97 -61
18 -15 52 -37 77 -47 24 -11 68 -39 97 -62 29 -23 76 -53 103 -67 28 -14 66
-36 84 -50 18 -13 56 -35 85 -48 30 -13 72 -44 99 -74 26 -28 66 -60 89 -71
75 -39 73 -20 65 -659 -4 -326 -11 -584 -17 -612 -16 -73 -35 -83 -181 -97
-67 -7 -215 -14 -328 -17 -230 -7 -376 -18 -498 -41 -69 -12 -93 -13 -139 -3
-43 10 -79 10 -171 0 -116 -12 -118 -12 -200 14 -112 37 -118 46 -106 173 19
204 7 341 -29 329 -25 -8 -36 -72 -34 -199 2 -122 1 -127 -22 -152 -33 -35
-67 -42 -250 -57 -195 -15 -484 -6 -561 17 -42 12 -114 17 -305 21 -262 6
-282 9 -324 54 l-20 21 -14 -34 c-8 -19 -18 -46 -22 -59 -11 -36 -52 -87 -84
-103 -15 -8 -64 -22 -109 -30 -118 -22 -123 -26 -134 -100 -2 -11 -23 -33 -47
-50 -72 -51 -74 -61 -18 -112 51 -46 78 -53 133 -34 16 5 69 14 117 19 74 7
95 14 130 39 39 27 50 30 152 34 123 5 180 24 297 97 35 23 90 50 123 61 32
11 68 29 80 39 66 61 132 74 273 51 70 -12 144 -38 137 -49 -2 -4 5 -15 16
-25 19 -16 20 -19 5 -39 -9 -12 -19 -29 -23 -37 -3 -8 -15 -26 -25 -39 -10
-13 -18 -27 -18 -31 0 -17 56 -32 245 -65 183 -33 287 -33 363 -1 31 13 86 26
122 30 70 6 102 29 95 66 -2 11 2 20 8 20 8 0 8 3 -2 9 -25 16 11 26 92 24 94
-2 131 -18 232 -106 127 -109 135 -121 134 -196 0 -85 -16 -125 -58 -153 -20
-14 -39 -37 -46 -58 -9 -27 -22 -40 -60 -58 -27 -13 -66 -39 -88 -57 -23 -20
-55 -36 -80 -41 -23 -3 -55 -12 -72 -18 -32 -11 -212 -193 -201 -203 3 -3 86
-6 183 -7 177 -1 178 -1 181 -24 5 -30 -23 -139 -58 -232 -15 -41 -42 -136
-60 -210 -36 -155 -76 -240 -269 -575 -22 -39 -54 -107 -71 -153 -18 -46 -49
-104 -69 -130 -21 -26 -57 -85 -81 -131 -26 -49 -66 -107 -97 -139 -30 -30
-63 -73 -75 -96 -11 -23 -38 -60 -58 -84 -28 -31 -42 -60 -55 -111 -14 -58
-23 -74 -55 -100 -33 -26 -39 -38 -45 -83 -4 -29 -13 -63 -21 -75 -7 -12 -19
-55 -25 -95 -14 -91 -21 -110 -62 -161 -19 -23 -46 -76 -61 -118 -19 -53 -36
-82 -56 -97 -16 -12 -43 -52 -61 -89 -18 -38 -42 -84 -55 -103 -12 -19 -41
-91 -64 -160 -40 -121 -73 -196 -112 -252 -10 -15 -32 -64 -48 -109 -39 -107
-121 -209 -201 -250 -24 -12 -61 -37 -82 -55 -21 -18 -51 -35 -65 -39 -60 -14
-111 -55 -165 -132 -42 -61 -55 -89 -59 -128 -4 -32 -13 -55 -26 -66 -32 -26
-179 -41 -422 -42 l-226 -2 -129 -87 c-157 -105 -231 -169 -291 -253 -25 -35
-62 -74 -82 -87 -20 -12 -65 -48 -98 -79 -34 -32 -75 -64 -90 -72 -16 -9 -48
-36 -71 -61 -51 -55 -87 -64 -195 -48 -96 14 -146 39 -182 91 -40 57 -129 139
-160 147 -40 10 -73 -3 -120 -46 -45 -41 -141 -80 -198 -80 -59 0 -120 52
-192 163 -19 31 -46 63 -59 72 -13 8 -36 37 -50 63 -14 27 -36 57 -48 68 -26
23 -50 71 -74 144 -11 35 -34 72 -61 102 -24 26 -44 52 -44 57 0 5 -18 31 -40
56 -22 25 -40 50 -40 55 0 34 -35 233 -47 270 -8 25 -38 75 -65 112 -44 59
-51 76 -60 140 -5 40 -26 124 -45 188 -20 63 -44 143 -53 178 -10 35 -31 80
-47 100 -62 77 -71 167 -23 227 37 47 44 83 37 203 -5 81 -13 118 -52 227
-132 371 -152 449 -175 687 -10 108 -31 170 -116 338 -46 92 -66 118 -161 216
-59 61 -123 116 -140 123 -19 8 -48 34 -67 61 -25 35 -54 58 -103 84 -37 20
-97 59 -133 86 -36 28 -101 76 -145 107 -44 31 -120 96 -170 143 -49 48 -110
101 -133 120 -33 25 -53 52 -79 109 -18 42 -49 92 -68 111 -35 36 -74 111 -75
142 0 9 -24 43 -53 75 -37 40 -59 75 -71 113 -10 30 -31 76 -47 102 -41 68
-70 184 -58 237 28 125 59 150 131 108 61 -35 71 -36 288 -38 173 -2 205 1
279 20 88 23 106 23 291 -8 30 -5 134 -10 230 -10 148 -1 180 2 210 17 38 18
50 51 27 73 -41 43 -14 93 56 103 25 4 53 13 63 20 17 13 14 15 -31 21 -81 12
-130 40 -156 89 l-23 43 14 384 c8 211 14 405 13 431 -2 51 -28 111 -46 105
-7 -2 -23 -34 -37 -72 -16 -44 -35 -75 -53 -89 -27 -20 -28 -20 -60 -2 -50 28
-162 187 -180 257 -5 18 -9 21 -18 12 -10 -10 -10 -41 -1 -140 13 -141 32
-567 32 -706 0 -55 5 -101 15 -124 22 -52 20 -58 -30 -87 -61 -36 -183 -66
-269 -66 -40 0 -98 -7 -129 -15 -107 -28 -128 -21 -170 59 -25 47 -28 113 -15
366 4 85 8 567 8 1070 1 778 -1 925 -13 980 -9 36 -18 92 -22 125 -3 33 -13
108 -21 166 -10 71 -12 114 -5 131 12 33 58 70 128 104 76 37 169 39 303 5
112 -29 138 -50 165 -131 9 -30 32 -82 50 -115 23 -41 39 -89 49 -149 17 -98
36 -136 67 -136 52 0 93 57 129 180 12 41 37 103 56 137 19 34 41 94 50 132
17 74 42 117 78 131 11 5 95 9 186 9 136 1 170 -2 188 -15z m-3431 -95 c88
-17 97 -31 101 -144 3 -59 -2 -133 -12 -189 -9 -50 -20 -134 -25 -186 -13
-116 -6 -475 10 -550 21 -99 12 -1330 -10 -1400 -6 -19 -14 -83 -18 -142 -10
-176 -36 -201 -213 -206 -102 -3 -119 -1 -148 17 -49 31 -124 154 -151 247
-13 43 -40 108 -61 144 -38 65 -48 93 -70 202 -8 40 -22 70 -45 99 -35 41 -44
65 -65 171 -6 31 -23 74 -37 95 -36 52 -59 106 -78 185 -20 77 -44 108 -85
108 -58 0 -58 6 -47 -670 4 -217 9 -407 12 -422 10 -44 -12 -106 -44 -122 -47
-25 -153 -38 -273 -34 -91 2 -121 7 -153 24 -65 34 -80 70 -82 204 -1 63 -6
207 -12 320 -14 279 -14 2143 0 2192 17 63 38 68 266 68 109 0 216 -5 238 -10
59 -13 81 -45 89 -127 10 -99 23 -139 66 -211 21 -34 44 -86 50 -115 7 -29 22
-69 34 -90 11 -21 29 -53 38 -70 10 -18 18 -50 18 -72 0 -69 29 -178 64 -245
18 -36 43 -100 55 -143 23 -86 51 -146 75 -167 14 -11 19 -10 35 4 26 24 33
88 23 231 -4 66 -4 235 0 375 4 140 8 324 9 408 3 238 11 245 249 236 80 -3
168 -10 197 -15z m898 -5 c48 -12 86 -14 186 -9 156 8 181 0 232 -76 47 -72
53 -89 76 -228 11 -66 31 -148 45 -183 25 -65 60 -208 71 -288 8 -62 43 -227
70 -335 32 -124 64 -296 75 -407 19 -194 31 -271 44 -297 19 -35 38 -152 71
-416 3 -27 25 -111 47 -185 22 -74 47 -177 54 -229 9 -68 20 -104 38 -132 32
-48 32 -60 0 -98 -49 -59 -98 -79 -221 -91 -62 -6 -123 -8 -135 -4 -13 4 -49
27 -82 52 -43 34 -65 59 -85 101 -24 52 -26 67 -27 202 -1 87 -7 155 -13 167
-21 39 -50 45 -216 48 -88 2 -182 4 -208 5 -74 2 -107 -36 -126 -151 -20 -116
-73 -270 -102 -300 -26 -26 -34 -27 -156 -34 -134 -7 -179 -3 -226 21 -46 23
-48 46 -15 199 27 126 30 167 40 439 10 292 11 304 44 435 19 74 39 182 45
240 17 161 54 359 99 530 26 100 51 231 70 370 16 118 36 240 45 270 19 69 45
231 45 286 0 95 84 133 215 98z m10756 -13 l29 -29 0 -417 c0 -454 -2 -470
-57 -498 -15 -8 -48 -18 -73 -22 -65 -10 -246 13 -292 36 -62 31 -68 55 -68
246 0 190 -9 234 -54 279 -49 49 -89 56 -291 45 -199 -10 -213 -15 -250 -87
-17 -32 -20 -59 -20 -154 l0 -115 40 -75 c39 -71 44 -77 116 -115 41 -22 91
-52 110 -66 18 -15 52 -36 74 -47 22 -11 54 -35 70 -52 17 -18 56 -45 89 -61
32 -15 77 -44 100 -62 22 -19 64 -46 91 -60 28 -13 63 -37 79 -52 17 -15 57
-40 91 -55 34 -15 77 -41 96 -57 19 -17 53 -40 76 -52 54 -27 80 -55 87 -94 3
-18 7 -295 7 -617 2 -519 0 -589 -14 -623 -30 -69 -5 -67 -769 -67 -645 0
-685 1 -724 19 -31 14 -47 30 -64 66 -20 41 -22 55 -14 108 9 70 10 177 6 652
-1 182 -2 340 -2 352 0 46 37 56 213 59 148 2 165 0 199 -19 70 -38 72 -53 78
-408 5 -292 6 -319 24 -338 36 -39 77 -44 306 -38 l215 6 28 32 c26 28 28 35
20 72 -4 23 -6 117 -5 209 5 258 -13 310 -127 368 -31 15 -69 43 -86 60 -16
18 -59 45 -94 61 -35 16 -80 42 -100 58 -20 16 -63 42 -96 59 -33 16 -71 42
-85 57 -14 15 -52 41 -85 57 -33 17 -80 49 -105 72 -25 23 -84 61 -132 84
-100 48 -148 91 -167 148 -8 24 -16 131 -22 284 -5 135 -13 278 -19 318 -14
101 -13 404 1 436 18 38 59 47 233 51 87 2 161 6 164 9 2 3 261 5 574 6 l569
0 30 -29z m-2568 -3525 c3 -8 1 -57 -4 -108 -8 -73 -18 -107 -44 -158 -18 -36
-36 -81 -40 -100 -4 -19 -14 -52 -22 -72 -12 -31 -20 -38 -42 -38 -20 1 -35
13 -63 52 -21 29 -38 58 -38 65 0 7 13 37 29 66 16 28 34 74 40 101 15 61 39
109 51 101 17 -10 59 26 77 66 17 40 46 52 56 25z m-7075 -1500 c72 -53 88
-75 108 -144 9 -29 50 -117 92 -195 l75 -142 9 -154 c6 -116 5 -160 -5 -179
-16 -33 -147 -114 -163 -101 -7 5 -17 31 -24 57 -15 60 -23 69 -86 97 -48 21
-52 26 -63 71 -19 79 -32 104 -63 120 -31 16 -48 49 -48 92 0 42 -22 74 -65
96 -33 17 -41 27 -43 54 -6 62 17 139 56 186 20 25 46 67 56 93 24 60 53 93
82 93 12 0 49 -20 82 -44z"/>
<path d="M7440 8788 c-62 -30 -72 -32 -230 -39 -91 -4 -205 -13 -255 -18 -49
-6 -165 -11 -257 -11 l-168 0 -17 -27 c-15 -22 -19 -54 -21 -178 -4 -164 8
-263 35 -282 12 -9 69 -13 199 -13 l182 0 110 -55 c66 -33 122 -68 139 -89 29
-32 30 -37 35 -160 4 -78 2 -140 -5 -162 -15 -49 -66 -105 -123 -134 -57 -28
-100 -30 -365 -16 l-165 9 -21 -26 c-19 -25 -20 -39 -19 -259 2 -239 6 -267
44 -287 9 -5 114 -12 232 -16 177 -5 228 -4 288 9 40 9 161 21 270 27 108 6
202 12 208 14 8 2 14 62 18 177 3 95 9 206 12 245 5 52 1 92 -11 141 -12 50
-15 95 -12 163 15 295 27 776 22 854 -5 64 -13 101 -28 128 -11 20 -23 37 -26
37 -4 0 -35 -14 -71 -32z"/>
<path d="M9611 4518 c-11 -18 -38 -51 -61 -73 -23 -22 -59 -70 -81 -107 -22
-37 -44 -70 -49 -73 -6 -4 -26 -30 -44 -58 -69 -105 -160 -201 -243 -257 -45
-30 -97 -72 -115 -93 -26 -30 -47 -41 -101 -56 -57 -15 -78 -28 -130 -77 -76
-70 -87 -84 -87 -103 0 -23 82 -96 162 -142 40 -23 93 -61 118 -84 25 -23 55
-48 68 -54 28 -15 43 -7 118 66 43 41 55 62 79 133 22 65 37 92 70 124 31 31
45 56 58 101 9 34 30 82 46 107 16 25 41 79 56 120 14 40 41 96 60 123 19 28
44 84 56 125 12 41 34 100 49 130 31 64 43 118 34 154 -9 36 -38 33 -63 -6z"/>
<path d="M8905 2991 c-19 -39 -45 -80 -58 -93 -13 -13 -36 -44 -51 -70 -14
-26 -48 -69 -75 -95 -48 -48 -63 -80 -78 -167 -5 -34 -4 -38 11 -33 9 4 47 9
84 13 37 4 75 11 85 16 23 12 53 77 67 145 7 31 26 71 50 103 23 31 43 72 49
101 13 61 13 65 0 112 -16 60 -42 50 -84 -32z"/>
<path d="M8556 2485 c-123 -70 -146 -121 -106 -236 26 -75 36 -90 60 -86 60 9
106 120 125 295 7 74 5 75 -79 27z"/>
<path d="M3326 8020 c-31 -38 -43 -80 -51 -185 -8 -100 -10 -115 -42 -251 -15
-64 -23 -121 -20 -136 11 -41 66 -61 169 -62 73 -1 91 2 115 20 40 30 41 76 5
178 -17 45 -38 134 -47 197 -31 223 -46 269 -84 269 -11 0 -31 -14 -45 -30z"/>
<path d="M10920 13935 c-37 -44 -14 -159 34 -171 32 -8 70 1 90 22 32 32 11
130 -33 154 -28 15 -77 12 -91 -5z"/>
<path d="M5080 13375 c0 -82 -21 -108 -93 -118 -26 -4 -69 -16 -95 -28 -26
-12 -90 -28 -142 -36 -97 -14 -127 -29 -117 -57 15 -38 70 -43 226 -20 58 8
121 18 138 20 19 3 52 22 77 44 25 21 58 41 74 45 16 3 39 15 51 27 29 26 23
54 -27 128 -28 41 -44 56 -65 58 l-27 3 0 -66z"/>
<path d="M4323 13111 c-33 -21 -51 -60 -38 -81 27 -43 150 -48 200 -8 77 61
-75 144 -162 89z"/>
<path d="M7745 13069 c-202 -34 -226 -67 -97 -126 42 -20 91 -46 107 -58 46
-35 99 -47 196 -47 84 0 91 2 146 36 32 20 74 41 93 47 77 26 93 73 38 107
-103 63 -274 78 -483 41z"/>
<path d="M13105 12525 c-11 -25 -19 -79 -23 -145 -6 -133 -1 -140 98 -140 l69
0 -5 113 c-3 61 -7 123 -10 136 -5 23 -5 23 -25 5 -25 -23 -47 -11 -71 37
l-16 34 -17 -40z"/>
<path d="M7240 12412 c-30 -11 -90 -38 -133 -61 -70 -37 -85 -41 -146 -41 -42
0 -96 8 -137 21 -62 20 -77 21 -149 11 -143 -19 -180 -31 -226 -70 l-43 -37
-156 3 c-123 3 -172 0 -225 -13 -57 -15 -76 -15 -124 -5 -45 9 -92 9 -245 -5
-182 -16 -256 -32 -256 -55 0 -16 32 -25 167 -49 67 -12 144 -28 170 -36 61
-19 121 -19 164 -1 33 14 37 13 90 -21 l56 -34 169 -1 c93 0 183 -4 201 -10
18 -5 46 -27 64 -49 48 -61 67 -67 213 -67 111 0 136 3 170 20 21 11 61 26 88
34 44 14 51 20 77 72 16 31 39 63 50 70 24 14 27 48 6 75 -7 11 -11 25 -9 32
9 22 73 42 157 50 67 6 85 4 136 -15 l60 -22 87 44 c90 45 120 74 109 107 -7
23 -19 28 -107 46 -118 25 -216 28 -278 7z m-302 -178 c40 -28 28 -50 -40 -76
-59 -22 -65 -27 -90 -80 -21 -45 -33 -57 -56 -63 -41 -9 -111 21 -118 50 -14
56 65 139 158 165 79 23 117 24 146 4z"/>
<path d="M9245 12046 c-21 -31 -64 -49 -112 -44 -49 4 -55 -11 -14 -39 51 -35
106 -38 176 -10 68 26 79 47 45 90 -28 35 -73 37 -95 3z"/>
<path d="M4509 11904 c-8 -9 -9 -32 -5 -72 4 -31 10 -86 14 -122 8 -71 16 -90
38 -90 11 0 14 20 14 105 0 144 -26 221 -61 179z"/>
<path d="M5396 11069 c-43 -5 -79 -15 -95 -27 -24 -18 -26 -25 -24 -88 2 -48
10 -86 28 -126 25 -56 26 -58 14 -170 -16 -149 -16 -177 2 -213 15 -32 36 -40
74 -31 26 7 45 50 45 105 0 69 36 78 123 31 54 -28 63 -30 172 -30 64 0 125
-5 135 -10 11 -6 65 -17 120 -25 120 -16 143 -29 228 -124 69 -77 109 -104
149 -99 36 4 108 125 129 215 9 38 22 89 30 115 25 82 21 92 -53 151 -94 73
-121 91 -173 111 -24 10 -65 33 -90 51 -25 18 -70 43 -100 56 -30 13 -77 38
-104 56 -47 32 -51 33 -156 33 -60 0 -142 4 -182 9 -123 16 -200 19 -272 10z"/>
</g>
</svg>
